<svg id="visual" viewBox="0 0 1800 1000" width="1800" height="1000" xmlns="http://www.w3.org/2000/svg" xmlns:xlink="http://www.w3.org/1999/xlink" version="1.1"><rect x="0" y="0" width="1800" height="1000" fill="#2f2e41"></rect><defs><linearGradient id="grad1_0" x1="44.4%" y1="0%" x2="100%" y2="100%"><stop offset="13.999999999999998%" stop-color="#2f2e41" stop-opacity="1"></stop><stop offset="86%" stop-color="#2f2e41" stop-opacity="1"></stop></linearGradient></defs><defs><linearGradient id="grad2_0" x1="0%" y1="0%" x2="55.6%" y2="100%"><stop offset="13.999999999999998%" stop-color="#2f2e41" stop-opacity="1"></stop><stop offset="86%" stop-color="#2f2e41" stop-opacity="1"></stop></linearGradient></defs><g transform="translate(1800, 0)"><path d="M0 500C-48.3 471.8 -96.6 443.5 -134.1 412.8C-171.7 382 -198.5 348.6 -238.1 327.7C-277.6 306.7 -330 298.1 -374.6 272.1C-419.1 246.2 -455.9 202.8 -475.5 154.5C-495.1 106.2 -497.6 53.1 -500 0L0 0Z" fill="#FBAE3C"></path></g><g transform="translate(0, 1000)"><path d="M0 -500C52.1 -496.2 104.3 -492.4 154.5 -475.5C204.7 -458.7 253.1 -428.7 281 -386.7C308.8 -344.7 316.2 -290.7 346.3 -251.6C376.3 -212.5 429 -188.4 458.4 -148.9C487.8 -109.5 493.9 -54.8 500 0L0 0Z" fill="#FBAE3C"></path></g></svg>