<svg version="1.1" id="Layer_1" xmlns="http://www.w3.org/2000/svg" xmlns:xlink="http://www.w3.org/1999/xlink" x="0px" y="0px"
	 width="100%" viewBox="0 0 70 70" enable-background="new 0 0 70 70" xml:space="preserve">
<path fill="#D1D0D1" opacity="1.000000" stroke="none" 
	d="
M39.000000,1.000000 
	C41.700012,1.000000 44.400028,1.000000 47.253761,1.299959 
	C47.856823,2.050029 48.224983,2.702425 48.767570,2.920168 
	C58.210804,6.709776 65.006607,13.161891 68.951042,22.604408 
	C69.217964,23.243404 70.298088,23.542711 71.000000,24.000000 
	C71.000000,31.687576 71.000000,39.375153 70.713371,47.236790 
	C69.228943,49.272030 68.031143,51.133209 66.378426,52.996109 
	C61.579987,52.986019 57.236465,52.974205 52.938187,52.590851 
	C52.978977,51.470123 52.974522,50.720936 53.007263,49.595692 
	C53.021271,48.711937 52.998085,48.204235 52.971085,47.596729 
	C52.967266,47.496922 52.911758,47.305027 53.287804,47.076889 
	C53.518242,44.062992 53.372635,41.277233 53.159264,38.093460 
	C51.720413,36.173752 50.349335,34.652050 48.714127,33.018974 
	C48.280533,32.819286 48.111065,32.730968 47.897930,32.455376 
	C47.761669,31.962971 47.558708,31.841074 47.144531,31.504816 
	C46.773212,29.257013 46.502747,27.406811 46.182755,25.296234 
	C45.977886,24.718651 45.822548,24.401440 45.738270,23.690865 
	C45.169060,20.546398 44.528790,17.795298 43.908325,14.750633 
	C43.348343,13.952424 42.768555,13.447777 42.107849,12.630857 
	C41.392227,11.528502 40.757530,10.738422 39.939903,9.644583 
	C38.836613,9.171230 37.916248,9.001635 37.054413,8.472832 
	C37.741962,5.742416 38.370979,3.371208 39.000000,1.000000 
z"/>
<path fill="#D8D7D8" opacity="1.000000" stroke="none" 
	d="
M1.000000,38.000000 
	C1.000000,33.643101 1.000000,29.286201 1.298629,24.764008 
	C2.790429,22.552292 3.930435,20.472589 5.186846,18.465763 
	C8.801229,12.692622 12.607541,7.106220 19.846710,5.452143 
	C20.984909,5.998068 22.286478,6.676162 22.902857,6.282208 
	C27.563892,3.303145 28.123295,6.952669 28.914509,9.948146 
	C29.279184,11.328787 29.091795,12.855247 29.169182,14.595699 
	C29.199774,15.246640 29.215912,15.617471 29.137846,16.233664 
	C29.055874,16.653835 29.068108,16.828648 28.914574,17.287880 
	C28.736589,18.004766 28.724371,18.437233 28.510656,19.186096 
	C28.218597,20.999563 28.128036,22.496634 27.913330,24.162588 
	C27.789188,24.331472 27.916891,24.730755 27.643637,24.966867 
	C27.305685,26.140089 27.240988,27.077198 27.046825,28.313181 
	C26.890152,29.730591 26.862946,30.849127 26.703106,32.120949 
	C26.570473,32.274231 26.540112,32.678493 26.281382,32.726402 
	C25.694475,32.895763 25.366301,33.017212 24.685745,33.176182 
	C20.707008,36.010601 20.151859,39.827065 20.475323,44.208603 
	C20.063540,45.257084 19.920868,46.121502 19.391853,46.990200 
	C17.223989,46.390263 15.325746,46.006863 13.683648,45.138874 
	C9.395928,42.872448 5.220316,40.393940 1.000000,38.000000 
z"/>
<path fill="#D2D2D4" opacity="1.000000" stroke="none" 
	d="
M1.000000,38.454109 
	C5.220316,40.393940 9.395928,42.872448 13.683648,45.138874 
	C15.325746,46.006863 17.223989,46.390263 19.445145,46.998787 
	C19.884779,47.003086 19.992205,46.992397 19.997013,47.393913 
	C20.028135,48.597031 20.054451,49.398628 20.117550,50.379780 
	C20.281651,50.783276 20.469442,50.929787 20.839497,51.301826 
	C21.303885,52.134533 21.646486,52.664280 21.996515,53.390587 
	C22.003944,53.587143 22.038240,53.979038 22.053009,54.300732 
	C22.673891,55.089981 23.280003,55.557537 24.065929,56.306942 
	C24.890169,56.726860 25.534594,56.864929 26.319576,57.015694 
	C26.460133,57.028385 26.737427,56.975658 26.892830,57.214127 
	C27.359764,57.647236 27.671291,57.841881 28.021694,58.302433 
	C28.143044,58.727383 28.225517,58.886425 28.334282,59.336937 
	C28.916155,60.142895 29.471735,60.657379 29.977076,61.520302 
	C28.617891,64.912491 27.308945,67.956245 26.000000,71.000000 
	C25.555555,71.000000 25.111111,71.000000 24.630203,70.700165 
	C24.144327,69.950127 23.776075,69.295975 23.233437,69.080040 
	C13.768335,65.313522 6.999211,58.834312 3.047332,49.398911 
	C2.779325,48.759026 1.701299,48.458408 1.000000,48.000000 
	C1.000000,44.969406 1.000000,41.938812 1.000000,38.454109 
z"/>
<path fill="#F4F4F4" opacity="1.000000" stroke="none" 
	d="
M26.468578,71.000000 
	C27.308945,67.956245 28.617891,64.912491 30.295269,61.440384 
	C31.101017,61.002022 31.538332,60.992020 32.305511,61.063042 
	C33.086014,61.100906 33.536655,61.057743 34.339607,61.076977 
	C35.148418,61.019218 35.604912,60.899063 36.453331,60.802498 
	C38.750465,59.914764 40.655674,59.003437 42.528084,58.063408 
	C42.495285,58.034710 42.408768,58.024101 42.425598,58.424606 
	C42.964092,58.861088 43.485748,58.897060 44.290192,59.129494 
	C46.016510,59.125927 47.460052,58.925900 48.853661,59.136757 
	C49.556805,62.069290 50.309879,64.590942 50.912949,67.442352 
	C49.841961,68.848076 48.920982,69.924042 48.000000,71.000000 
	C40.979053,71.000000 33.958103,71.000000 26.468578,71.000000 
z"/>
<path fill="#000000" opacity="1.000000" stroke="none" 
	d="
M19.692749,5.087813 
	C12.607541,7.106220 8.801229,12.692622 5.186846,18.465763 
	C3.930435,20.472589 2.790429,22.552292 1.298629,24.299355 
	C1.000000,16.407045 1.000000,8.814090 1.000000,1.000000 
	C8.352704,1.000000 15.707616,1.000000 23.823616,1.263703 
	C22.954052,2.714209 21.323400,3.901011 19.692749,5.087813 
z"/>
<path fill="#000000" opacity="1.000000" stroke="none" 
	d="
M48.468739,71.000000 
	C48.920982,69.924042 49.841961,68.848076 51.287720,67.389046 
	C59.309166,65.004501 63.475189,59.432480 66.833344,52.994389 
	C68.031143,51.133209 69.228943,49.272030 70.713371,47.705425 
	C71.000000,55.592953 71.000000,63.185909 71.000000,71.000000 
	C63.647297,71.000000 56.292385,71.000000 48.468739,71.000000 
z"/>
<path fill="#000000" opacity="1.000000" stroke="none" 
	d="
M71.000000,23.531265 
	C70.298088,23.542711 69.217964,23.243404 68.951042,22.604408 
	C65.006607,13.161891 58.210804,6.709776 48.767570,2.920168 
	C48.224983,2.702425 47.856823,2.050029 47.703743,1.299959 
	C55.592957,1.000000 63.185913,1.000000 71.000000,1.000000 
	C71.000000,8.352704 71.000000,15.707616 71.000000,23.531265 
z"/>
<path fill="#000000" opacity="1.000000" stroke="none" 
	d="
M1.000000,48.468735 
	C1.701299,48.458408 2.779325,48.759026 3.047332,49.398911 
	C6.999211,58.834312 13.768335,65.313522 23.233437,69.080040 
	C23.776075,69.295975 24.144327,69.950127 24.296869,70.700165 
	C16.407047,71.000000 8.814094,71.000000 1.000000,71.000000 
	C1.000000,63.647297 1.000000,56.292385 1.000000,48.468735 
z"/>
<path fill="#D5D4D4" opacity="1.000000" stroke="none" 
	d="
M19.846710,5.452143 
	C21.323400,3.901011 22.954052,2.714209 24.292351,1.263703 
	C28.689257,1.000000 33.378513,1.000000 38.533882,1.000000 
	C38.370979,3.371208 37.741962,5.742416 36.726288,8.539332 
	C35.899654,9.023657 35.459675,9.082273 34.771526,9.116607 
	C34.185318,9.234747 33.988361,9.487226 33.693550,9.897045 
	C33.454613,9.944327 33.002338,10.125308 32.684410,10.158019 
	C31.895178,11.084566 31.423876,11.978402 30.683041,12.990989 
	C29.993912,13.511689 29.574318,13.913639 29.154726,14.315589 
	C29.091795,12.855247 29.279184,11.328787 28.914509,9.948146 
	C28.123295,6.952669 27.563892,3.303145 22.902857,6.282208 
	C22.286478,6.676162 20.984909,5.998068 19.846710,5.452143 
z"/>
<path fill="#CBCBCD" opacity="1.000000" stroke="none" 
	d="
M66.378426,52.996109 
	C63.475189,59.432480 59.309166,65.004501 51.437721,67.059288 
	C50.309879,64.590942 49.556805,62.069290 48.734138,58.871189 
	C48.779312,57.830494 48.894085,57.466251 49.206268,57.004875 
	C49.661644,56.753578 49.862434,56.544514 50.255501,56.152985 
	C50.683270,55.969822 50.861591,55.914234 51.337757,55.719284 
	C51.767796,54.720615 51.899994,53.861317 52.247372,52.991966 
	C52.462555,52.981918 52.892944,52.962387 52.892944,52.962387 
	C57.236465,52.974205 61.579987,52.986019 66.378426,52.996109 
z"/>
<path fill="#DE7606" opacity="1.000000" stroke="none" 
	d="
M47.941593,32.642647 
	C48.111065,32.730968 48.280533,32.819286 48.715027,33.362988 
	C48.724922,37.598545 48.469788,41.378716 48.177208,45.150688 
	C48.139767,45.142494 48.119995,45.068424 47.875732,45.153088 
	C47.436558,45.512222 47.241646,45.786694 47.054001,46.028038 
	C47.061268,45.994919 47.106052,46.045849 46.727547,46.020752 
	C45.594826,46.035519 44.840607,46.075378 44.055130,45.830467 
	C44.004288,45.355717 43.984711,45.165737 44.113373,44.662766 
	C46.368938,40.498177 42.404049,41.222492 41.154655,39.653488 
	C41.570854,37.419556 41.830173,35.550823 42.460312,33.705032 
	C43.564644,33.777565 44.298157,33.827152 45.359962,33.911819 
	C46.439365,33.512150 47.190479,33.077400 47.941593,32.642647 
z"/>
<path fill="#EF8809" opacity="1.000000" stroke="none" 
	d="
M48.214653,45.158886 
	C48.469788,41.378716 48.724922,37.598545 48.979153,33.474365 
	C50.349335,34.652050 51.720413,36.173752 53.122635,38.490112 
	C52.941914,41.196457 52.730061,43.108135 52.157234,45.041222 
	C50.602398,45.094711 49.408524,45.126797 48.214653,45.158886 
z"/>
<path fill="#301509" opacity="1.000000" stroke="none" 
	d="
M45.031670,33.876743 
	C44.298157,33.827152 43.564644,33.777565 42.371662,33.617561 
	C41.912193,33.507141 41.662201,33.491924 41.618614,33.127735 
	C41.412437,32.038158 41.249847,31.312769 41.044888,30.358841 
	C40.976616,29.820276 40.979218,29.510490 41.320587,29.107521 
	C42.419086,28.676325 43.207321,28.338551 44.352829,27.929199 
	C45.217495,27.090618 45.724888,26.323612 46.232285,25.556606 
	C46.502747,27.406811 46.773212,29.257013 46.811783,31.546543 
	C46.063816,32.616161 45.547741,33.246452 45.031670,33.876743 
z"/>
<path fill="#FCC297" opacity="1.000000" stroke="none" 
	d="
M48.177208,45.150688 
	C49.408524,45.126797 50.602398,45.094711 52.217636,45.424637 
	C52.729923,46.292774 52.820839,46.798901 52.911758,47.305027 
	C52.911758,47.305027 52.967266,47.496922 52.669781,47.648773 
	C52.177185,47.858429 51.982071,47.916237 51.612259,48.104191 
	C51.219265,48.442635 51.070137,48.692272 50.991463,49.234550 
	C50.990353,49.653355 50.987949,49.820866 50.599083,49.988205 
	C49.183098,49.996330 48.153572,50.004623 47.121853,49.614403 
	C47.115120,48.159210 47.110588,47.102528 47.106056,46.045849 
	C47.106052,46.045849 47.061268,45.994919 47.328903,46.003159 
	C47.771019,45.697075 47.945507,45.382748 48.119995,45.068424 
	C48.119995,45.068424 48.139767,45.142494 48.177208,45.150688 
z"/>
<path fill="#2A1A11" opacity="1.000000" stroke="none" 
	d="
M43.888519,15.044195 
	C44.528790,17.795298 45.169060,20.546398 45.565147,23.878328 
	C44.903896,24.980837 44.486832,25.502516 44.022667,25.711454 
	C43.639530,24.886045 43.303493,24.373381 42.791248,23.634848 
	C42.290554,23.211023 41.966064,23.013069 41.605072,22.606766 
	C41.568573,22.398420 41.726120,22.005140 42.033409,21.826782 
	C42.546963,20.744093 42.753223,19.839758 42.962227,18.580585 
	C43.272816,17.165230 43.580666,16.104712 43.888519,15.044195 
z"/>
<path fill="#5F4132" opacity="1.000000" stroke="none" 
	d="
M43.908325,14.750632 
	C43.580666,16.104712 43.272816,17.165230 42.710613,18.599964 
	C42.287792,18.974960 42.119320,18.975739 41.816116,18.866127 
	C41.550549,18.554106 41.370243,18.418144 40.871525,18.084103 
	C40.396656,16.856064 40.190739,15.891775 40.040703,14.672985 
	C40.171730,14.261869 40.246872,14.105255 40.539978,13.794072 
	C41.234879,13.407380 41.711823,13.175256 42.188766,12.943130 
	C42.768555,13.447777 43.348343,13.952424 43.908325,14.750632 
z"/>
<path fill="#854D13" opacity="1.000000" stroke="none" 
	d="
M53.287804,47.076889 
	C52.820839,46.798901 52.729923,46.292774 52.578606,45.403233 
	C52.730061,43.108135 52.941914,41.196457 53.190399,38.888123 
	C53.372635,41.277233 53.518242,44.062992 53.287804,47.076889 
z"/>
<path fill="#423027" opacity="1.000000" stroke="none" 
	d="
M42.107849,12.630857 
	C41.711823,13.175256 41.234879,13.407380 40.405666,13.610880 
	C40.053398,13.582256 39.938065,13.142248 39.981979,12.837191 
	C39.714672,12.300076 39.403458,12.068017 39.000648,11.705557 
	C38.909058,11.575154 38.882710,11.257539 39.027878,10.985981 
	C39.489643,10.459063 39.806240,10.203702 40.122833,9.948341 
	C40.757530,10.738422 41.392227,11.528502 42.107849,12.630857 
z"/>
<path fill="#3D2920" opacity="1.000000" stroke="none" 
	d="
M39.939903,9.644583 
	C39.806240,10.203702 39.489643,10.459063 38.787224,10.972077 
	C38.401402,11.229732 37.989513,10.978411 37.819061,10.739999 
	C37.099682,10.335456 36.550755,10.169326 35.796074,9.912392 
	C35.328617,9.654625 35.138412,9.427725 35.019699,9.140888 
	C35.459675,9.082273 35.899654,9.023657 36.667755,8.898540 
	C37.916248,9.001635 38.836613,9.171230 39.939903,9.644583 
z"/>
<path fill="#211008" opacity="1.000000" stroke="none" 
	d="
M44.069763,26.024197 
	C44.486832,25.502516 44.903896,24.980837 45.494087,24.271690 
	C45.822548,24.401440 45.977886,24.718651 46.182755,25.296234 
	C45.724888,26.323612 45.217495,27.090618 44.353127,27.675251 
	C43.991421,27.323654 43.986691,27.154430 44.001896,26.744770 
	C44.021835,26.504335 44.069767,26.024199 44.069763,26.024197 
z"/>
<path fill="#3B251A" opacity="1.000000" stroke="none" 
	d="
M45.359962,33.911819 
	C45.547741,33.246452 46.063816,32.616161 46.912636,31.944141 
	C47.558708,31.841074 47.761669,31.962971 47.897930,32.455376 
	C47.190479,33.077400 46.439365,33.512150 45.359962,33.911819 
z"/>
<path fill="#8E715C" opacity="1.000000" stroke="none" 
	d="
M52.938187,52.590851 
	C52.892944,52.962387 52.462555,52.981918 52.238434,52.737354 
	C52.004200,52.323151 51.994083,52.153511 51.988087,51.655312 
	C51.997154,50.887699 52.002106,50.448639 52.247425,49.990334 
	C52.487793,49.971088 52.970066,49.971748 52.970066,49.971748 
	C52.974522,50.720936 52.978977,51.470123 52.938187,52.590851 
z"/>
<path fill="#C48D66" opacity="1.000000" stroke="none" 
	d="
M53.007263,49.595692 
	C52.970066,49.971748 52.487793,49.971088 52.231857,49.717377 
	C51.946964,49.284054 51.918011,49.104443 51.886917,48.684624 
	C51.884781,48.444416 51.786961,47.974045 51.786961,47.974045 
	C51.982071,47.916237 52.177185,47.858429 52.673599,47.748581 
	C52.998085,48.204235 53.021271,48.711937 53.007263,49.595692 
z"/>
<path fill="#F38F07" opacity="1.000000" stroke="none" 
	d="
M20.744432,44.024540 
	C20.151859,39.827065 20.707008,36.010601 24.840744,33.459801 
	C26.295351,34.056107 27.242577,34.406315 28.187786,34.820953 
	C28.185774,34.885387 28.057280,34.895908 28.070084,35.193539 
	C28.053844,36.661232 28.024799,37.831299 27.745964,38.834690 
	C26.996265,38.744732 26.073736,38.778599 26.060953,38.904694 
	C25.911291,40.381020 25.898327,41.871204 25.501890,43.288292 
	C24.089449,43.447208 23.024382,43.675556 21.752253,43.963905 
	C21.545189,44.023899 21.164392,44.226124 21.090086,44.111805 
	C21.015779,43.997486 20.744432,44.024540 20.744432,44.024540 
z"/>
<path fill="#2D170E" opacity="1.000000" stroke="none" 
	d="
M26.835739,31.967663 
	C26.862946,30.849127 26.890152,29.730591 27.253681,28.308947 
	C27.590000,28.005838 28.003626,27.993998 28.292465,27.869757 
	C29.050709,26.498140 29.520109,25.250763 30.373642,24.002441 
	C31.525959,23.992090 32.294147,23.982685 33.289524,23.981579 
	C33.516716,23.989878 33.970711,24.013685 34.081154,24.258709 
	C34.477463,24.955015 34.763325,25.406296 35.057198,26.132147 
	C35.265141,26.702374 35.465073,26.998028 35.649582,27.315901 
	C35.634167,27.338120 35.658833,27.385551 35.711067,27.598234 
	C35.763302,27.810917 36.045364,28.146017 35.743996,28.003971 
	C35.341103,28.258995 35.239578,28.656065 35.071892,28.999815 
	C35.005730,28.946497 34.835922,28.939852 34.625431,29.117714 
	C34.365917,29.648222 34.316895,30.000868 34.215004,30.632248 
	C34.052097,31.273310 33.942055,31.635637 33.546318,32.117393 
	C32.517262,32.523823 31.773909,32.810818 30.787960,32.810753 
	C29.308823,32.338348 28.072279,32.153004 26.835739,31.967663 
z"/>
<path fill="#2B1911" opacity="1.000000" stroke="none" 
	d="
M33.062332,23.973278 
	C32.294147,23.982685 31.525959,23.992090 30.048389,23.997690 
	C28.905163,23.993826 28.471317,23.993765 28.037474,23.993704 
	C28.128036,22.496634 28.218597,20.999563 28.885796,19.227322 
	C29.964806,18.977375 30.467178,19.002602 30.971842,19.278473 
	C30.975832,19.696770 30.977533,19.864418 31.095005,20.241905 
	C31.412186,20.714321 31.670647,20.895544 32.102551,21.056076 
	C32.218937,21.116739 32.448151,21.244673 32.421616,21.492788 
	C32.395077,21.740904 32.678555,22.151638 32.665810,22.466841 
	C32.789490,23.179121 32.925911,23.576199 33.062332,23.973278 
z"/>
<path fill="#422D24" opacity="1.000000" stroke="none" 
	d="
M27.913330,24.162588 
	C28.471317,23.993765 28.905163,23.993826 29.664257,23.998636 
	C29.520109,25.250763 29.050709,26.498140 28.290546,27.463303 
	C27.972153,26.364311 27.944521,25.547533 27.916891,24.730755 
	C27.916891,24.730755 27.789188,24.331472 27.913330,24.162588 
z"/>
<path fill="#3F190D" opacity="1.000000" stroke="none" 
	d="
M26.703106,32.120949 
	C28.072279,32.153004 29.308823,32.338348 30.693256,33.055466 
	C30.582357,33.821522 30.323568,34.055798 29.836872,34.330795 
	C29.306446,34.465519 29.046131,34.627403 28.633505,34.830429 
	C28.438988,34.803692 28.057280,34.895908 28.057280,34.895908 
	C28.057280,34.895908 28.185774,34.885387 28.059311,34.510071 
	C27.468601,33.649338 27.004356,33.163914 26.540112,32.678493 
	C26.540112,32.678493 26.570473,32.274231 26.703106,32.120949 
z"/>
<path fill="#40291D" opacity="1.000000" stroke="none" 
	d="
M29.169182,14.595699 
	C29.574318,13.913639 29.993912,13.511689 30.698288,13.267469 
	C30.988846,13.609695 30.994621,13.794189 31.094257,14.193315 
	C31.358656,14.684035 31.595755,14.879308 32.016788,15.227627 
	C32.234005,15.604537 32.333851,15.747582 32.331581,16.154169 
	C32.170605,16.596699 32.111736,16.775688 31.789917,16.967499 
	C31.351582,16.987152 31.176201,16.993979 30.999973,17.000092 
	C30.999126,16.999380 30.992659,16.994980 30.853441,16.763664 
	C30.220167,16.350998 29.726109,16.169649 29.232052,15.988301 
	C29.215912,15.617471 29.199774,15.246640 29.169182,14.595699 
z"/>
<path fill="#C05D09" opacity="1.000000" stroke="none" 
	d="
M26.281382,32.726402 
	C27.004356,33.163914 27.468601,33.649338 28.061323,34.445641 
	C27.242577,34.406315 26.295351,34.056107 25.193127,33.422279 
	C25.366301,33.017212 25.694475,32.895763 26.281382,32.726402 
z"/>
<path fill="#40291D" opacity="1.000000" stroke="none" 
	d="
M30.969553,19.027828 
	C30.467178,19.002602 29.964806,18.977375 29.087292,18.910923 
	C28.724371,18.437233 28.736589,18.004766 29.233332,17.286797 
	C30.142792,16.999186 30.567724,16.997084 30.992659,16.994980 
	C30.992659,16.994980 30.999126,16.999380 30.999578,17.337505 
	C30.989872,18.126364 30.979712,18.577095 30.969553,19.027828 
z"/>
<path fill="#EBB695" opacity="1.000000" stroke="none" 
	d="
M19.831486,46.994499 
	C19.920868,46.121502 20.063540,45.257084 20.475323,44.208603 
	C20.744432,44.024540 21.015779,43.997486 21.113895,44.289963 
	C21.212009,44.582443 21.351389,44.921120 21.335052,45.165916 
	C21.318718,45.410709 21.301104,45.901073 21.228163,46.124176 
	C21.155222,46.347275 21.079670,46.810596 20.806610,46.848907 
	C20.353104,46.922283 20.172653,46.957340 19.992205,46.992397 
	C19.992205,46.992397 19.884779,47.003086 19.831486,46.994499 
z"/>
<path fill="#3B251A" opacity="1.000000" stroke="none" 
	d="
M27.643637,24.966867 
	C27.944521,25.547533 27.972153,26.364311 28.001705,27.587543 
	C28.003626,27.993998 27.590000,28.005838 27.383144,28.010073 
	C27.240988,27.077198 27.305685,26.140089 27.643637,24.966867 
z"/>
<path fill="#4A3325" opacity="1.000000" stroke="none" 
	d="
M30.853441,16.763664 
	C30.567724,16.997084 30.142792,16.999186 29.399097,17.002373 
	C29.068108,16.828648 29.055874,16.653835 29.137848,16.233664 
	C29.726109,16.169649 30.220167,16.350998 30.853441,16.763664 
z"/>
<path fill="#F5C39E" opacity="1.000000" stroke="none" 
	d="
M22.038240,53.979038 
	C22.038240,53.979038 22.003944,53.587143 22.031748,53.106514 
	C22.071283,52.436138 22.083014,52.246395 22.293373,51.940292 
	C22.739368,51.632538 22.932367,51.396656 23.366188,51.074188 
	C24.107637,50.687706 24.553896,50.343323 25.310389,49.966415 
	C26.099741,49.579613 26.578859,49.225327 27.364285,49.105824 
	C29.123222,49.617336 30.575857,49.894070 32.397495,50.213417 
	C33.497955,50.144016 34.229416,50.032005 35.240005,49.932632 
	C36.034801,49.747749 36.550468,49.550228 37.293297,49.477314 
	C37.674160,49.680737 37.827858,49.759556 37.977055,49.841034 
	C37.972557,49.843700 37.956512,49.864433 37.806702,49.983772 
	C37.599445,50.214317 37.464554,50.375916 37.498299,50.427780 
	C37.627007,50.625568 37.810074,50.787979 38.146133,51.209530 
	C38.879265,51.637165 39.439098,51.818874 39.967010,52.320915 
	C39.285179,53.426006 38.635265,54.210770 37.777260,54.986759 
	C37.569168,54.977985 37.155033,54.933197 36.896282,54.652905 
	C33.015976,52.689899 29.460135,52.242416 25.807222,54.697174 
	C24.374828,54.299438 23.206535,54.139240 22.038240,53.979038 
z"/>
<path fill="#EAB58E" opacity="1.000000" stroke="none" 
	d="
M26.071321,54.934711 
	C29.460135,52.242416 33.015976,52.689899 36.654716,54.779716 
	C36.156437,55.671661 35.640968,56.156498 34.732315,56.696995 
	C34.086590,57.139229 33.834049,57.525799 33.591850,57.935417 
	C33.602192,57.958458 33.652580,57.940746 33.520096,57.496525 
	C31.616407,57.095123 29.845200,57.137947 27.750408,57.060680 
	C27.197027,56.952282 26.967226,56.963970 26.737427,56.975658 
	C26.737427,56.975658 26.460133,57.028385 26.309608,56.691368 
	C26.124767,56.140785 26.090450,55.927223 26.053740,55.518799 
	C26.051346,55.323944 26.071321,54.934711 26.071321,54.934711 
z"/>
<path fill="#382017" opacity="1.000000" stroke="none" 
	d="
M28.073992,57.180767 
	C29.845200,57.137947 31.616407,57.095123 33.244392,57.614441 
	C32.821003,58.458210 32.540840,58.739841 31.977482,58.942078 
	C30.565523,58.923607 29.436758,58.984535 28.307993,59.045467 
	C28.225517,58.886425 28.143044,58.727383 28.079369,58.092163 
	C28.098169,57.615986 28.073992,57.180767 28.073992,57.180767 
z"/>
<path fill="#060507" opacity="1.000000" stroke="none" 
	d="
M28.334282,59.336937 
	C29.436758,58.984535 30.565523,58.923607 32.041122,59.286484 
	C32.250519,60.134201 32.113083,60.558109 31.975647,60.982018 
	C31.538332,60.992020 31.101017,61.002022 30.345509,61.091942 
	C29.471735,60.657379 28.916155,60.142895 28.334282,59.336937 
z"/>
<path fill="#EAAB80" opacity="1.000000" stroke="none" 
	d="
M25.807222,54.697174 
	C26.071321,54.934711 26.051346,55.323944 25.695816,55.597385 
	C24.855560,55.922249 24.370838,55.973671 23.886114,56.025093 
	C23.280003,55.557537 22.673891,55.089981 22.053009,54.300732 
	C23.206535,54.139240 24.374828,54.299438 25.807222,54.697174 
z"/>
<path fill="#CA9069" opacity="1.000000" stroke="none" 
	d="
M22.094744,52.056656 
	C22.083014,52.246395 22.071283,52.436138 22.024319,52.909954 
	C21.646486,52.664280 21.303885,52.134533 20.860233,51.106590 
	C20.759182,50.608395 20.669949,50.223804 21.028227,50.136284 
	C21.627398,49.999519 21.868292,49.950275 22.468506,49.927380 
	C23.551935,49.968800 24.276045,49.983871 25.000153,49.998940 
	C24.553896,50.343323 24.107637,50.687706 23.130661,51.142891 
	C22.293810,51.434662 22.125410,51.702316 22.094744,52.056656 
z"/>
<path fill="#CA9A89" opacity="1.000000" stroke="none" 
	d="
M22.109186,49.901028 
	C21.868292,49.950275 21.627398,49.999519 20.883930,50.106453 
	C20.381355,50.164143 20.080767,50.200230 20.080767,50.200230 
	C20.054451,49.398628 20.028135,48.597031 19.997013,47.393913 
	C20.172653,46.957340 20.353104,46.922283 20.888891,47.171440 
	C21.532549,48.270779 21.820868,49.085903 22.109186,49.901028 
z"/>
<path fill="#AE8165" opacity="1.000000" stroke="none" 
	d="
M24.065929,56.306942 
	C24.370838,55.973671 24.855560,55.922249 25.698208,55.792244 
	C26.090450,55.927223 26.124767,56.140785 26.169052,56.678673 
	C25.534594,56.864929 24.890169,56.726860 24.065929,56.306942 
z"/>
<path fill="#6C4B37" opacity="1.000000" stroke="none" 
	d="
M27.750408,57.060680 
	C28.073992,57.180767 28.098169,57.615986 28.040495,57.826256 
	C27.671291,57.841881 27.359764,57.647236 26.892830,57.214127 
	C26.967226,56.963970 27.197027,56.952282 27.750408,57.060680 
z"/>
<path fill="#EAAB80" opacity="1.000000" stroke="none" 
	d="
M20.117550,50.379780 
	C20.080767,50.200230 20.381355,50.164143 20.525652,50.193974 
	C20.669949,50.223804 20.759182,50.608395 20.738445,50.803635 
	C20.469442,50.929787 20.281651,50.783276 20.117550,50.379780 
z"/>
<path fill="#332E38" opacity="1.000000" stroke="none" 
	d="
M42.560883,58.092110 
	C40.655674,59.003437 38.750465,59.914764 36.431602,60.467415 
	C36.028770,59.215832 36.039585,58.322926 36.368263,57.414677 
	C37.098808,57.316483 37.511486,57.233635 37.847420,57.223103 
	C37.770683,57.295418 37.876667,57.477745 38.066566,57.610847 
	C38.256470,57.743950 38.715492,57.814556 38.715492,57.814556 
	C38.715492,57.814556 39.161255,57.684139 39.458946,57.705360 
	C40.153061,57.693600 40.549480,57.660614 41.344032,57.763279 
	C42.015072,57.963322 42.287975,58.027714 42.560883,58.092110 
z"/>
<path fill="#130E0A" opacity="1.000000" stroke="none" 
	d="
M49.008854,57.102005 
	C48.894085,57.466251 48.779312,57.830494 48.784065,58.460304 
	C47.460052,58.925900 46.016510,59.125927 44.331131,58.945702 
	C44.089291,58.565445 44.092682,58.188786 44.104630,58.072189 
	C44.116573,57.955593 43.947262,57.793472 44.193581,57.778156 
	C44.439896,57.762840 44.909496,57.609207 45.161968,57.679977 
	C45.638226,57.534866 45.862007,57.318985 46.451599,57.113808 
	C47.547890,57.117008 48.278370,57.109505 49.008854,57.102005 
z"/>
<path fill="#635B5C" opacity="1.000000" stroke="none" 
	d="
M36.050400,57.430023 
	C36.039585,58.322926 36.028770,59.215832 36.039680,60.443821 
	C35.604912,60.899063 35.148418,61.019218 34.273865,60.684380 
	C33.764378,59.457047 33.672943,58.684708 33.581505,57.912373 
	C33.834049,57.525799 34.086590,57.139229 34.971123,56.885162 
	C35.752209,57.155121 35.901302,57.292572 36.050400,57.430023 
z"/>
<path fill="#A7A8A6" opacity="1.000000" stroke="none" 
	d="
M33.591850,57.935417 
	C33.672943,58.684708 33.764378,59.457047 33.921555,60.621979 
	C33.536655,61.057743 33.086014,61.100906 32.305511,61.063042 
	C32.113083,60.558109 32.250519,60.134201 32.324318,59.365887 
	C32.540840,58.739841 32.821003,58.458210 33.376873,58.058662 
	C33.652580,57.940746 33.602192,57.958458 33.591850,57.935417 
z"/>
<path fill="#AA8874" opacity="1.000000" stroke="none" 
	d="
M42.528084,58.063408 
	C42.287975,58.027714 42.015072,57.963322 41.535603,57.570648 
	C41.845806,57.082600 42.362572,56.922829 43.096474,56.896164 
	C43.524826,57.284004 43.736042,57.538738 43.947258,57.793472 
	C43.947262,57.793472 44.116573,57.955593 43.681480,58.053493 
	C42.967182,58.108967 42.687977,58.066536 42.408768,58.024101 
	C42.408768,58.024101 42.495285,58.034710 42.528084,58.063408 
z"/>
<path fill="#332E38" opacity="1.000000" stroke="none" 
	d="
M42.425598,58.424606 
	C42.687977,58.066536 42.967182,58.108967 43.669533,58.170090 
	C44.092682,58.188786 44.089291,58.565445 44.048347,58.749237 
	C43.485748,58.897060 42.964092,58.861088 42.425598,58.424606 
z"/>
<path fill="#3C2C22" opacity="1.000000" stroke="none" 
	d="
M31.000399,13.978684 
	C30.994621,13.794189 30.988846,13.609695 30.967823,13.148720 
	C31.423876,11.978402 31.895178,11.084566 32.684605,10.489367 
	C33.028442,11.229811 33.054150,11.671618 33.105968,12.269497 
	C33.132080,12.425568 33.205948,12.733069 32.992882,12.787225 
	C32.680500,13.242058 32.581177,13.642735 32.368595,14.064899 
	C32.255333,14.086387 32.028339,14.046003 31.771576,14.025801 
	C31.343340,13.996626 31.171869,13.987656 31.000399,13.978684 
z"/>
<path fill="#3D2920" opacity="1.000000" stroke="none" 
	d="
M33.079857,12.113425 
	C33.054150,11.671618 33.028442,11.229811 33.002533,10.456656 
	C33.002338,10.125308 33.454613,9.944327 33.909126,10.208828 
	C34.781605,10.750175 35.199574,11.027021 35.490669,11.504731 
	C35.363800,11.705594 35.031422,12.045146 34.742977,11.995232 
	C34.287395,12.046068 34.120258,12.146818 33.736752,12.201355 
	C33.520382,12.155142 33.079857,12.113425 33.079857,12.113425 
z"/>
<path fill="#422D24" opacity="1.000000" stroke="none" 
	d="
M35.617542,11.303868 
	C35.199574,11.027021 34.781605,10.750175 34.148060,10.161547 
	C33.988361,9.487226 34.185318,9.234747 34.771526,9.116608 
	C35.138412,9.427725 35.328617,9.654625 35.795883,10.197911 
	C36.003906,10.764590 36.006355,10.954947 35.936535,11.247972 
	C35.864262,11.350642 35.617542,11.303868 35.617542,11.303868 
z"/>
<path fill="#F7BF99" opacity="1.000000" stroke="none" 
	d="
M49.206268,57.004875 
	C48.278370,57.109505 47.547890,57.117008 46.215431,56.919632 
	C45.424412,56.638794 45.235371,56.562836 45.022724,56.240120 
	C44.670982,55.644840 44.342846,55.296318 44.021919,54.582504 
	C45.017269,53.479816 46.005417,52.742424 47.334415,52.005638 
	C48.462120,52.344082 49.248974,52.681915 49.906158,53.303146 
	C49.853012,54.484550 49.929531,55.382553 50.006050,56.280560 
	C49.862434,56.544514 49.661644,56.753578 49.206268,57.004875 
z"/>
<path fill="#D9A079" opacity="1.000000" stroke="none" 
	d="
M50.255501,56.152985 
	C49.929531,55.382553 49.853012,54.484550 50.137589,53.293259 
	C50.498680,52.999969 50.962364,52.979824 50.972961,53.340462 
	C51.002342,54.420280 51.021126,55.139465 51.039909,55.858650 
	C50.861591,55.914234 50.683270,55.969822 50.255501,56.152985 
z"/>
<path fill="#B38065" opacity="1.000000" stroke="none" 
	d="
M51.337753,55.719284 
	C51.021126,55.139465 51.002342,54.420280 50.996540,53.100681 
	C51.009525,52.500267 51.014500,52.018135 51.256874,52.009804 
	C51.499252,52.001469 51.983971,51.983868 51.983971,51.983868 
	C51.994083,52.153511 52.004200,52.323151 52.023251,52.747402 
	C51.899994,53.861317 51.767796,54.720615 51.337753,55.719284 
z"/>
<path fill="#F48F03" opacity="1.000000" stroke="none" 
	d="
M28.070084,35.193539 
	C28.057280,34.895908 28.438988,34.803692 28.883297,34.859787 
	C29.573332,34.707279 29.819056,34.498676 30.064779,34.290077 
	C30.323568,34.055798 30.582357,33.821522 30.935850,33.342529 
	C31.773909,32.810818 32.517262,32.523823 33.681084,32.343208 
	C34.408897,32.574379 34.716244,32.699162 35.344528,32.894379 
	C36.299080,33.128780 36.932693,33.292747 37.776134,33.610893 
	C38.324718,33.757504 38.663475,33.749935 39.447021,33.739357 
	C40.481937,33.654869 41.072067,33.573395 41.662201,33.491920 
	C41.662201,33.491924 41.912193,33.507141 42.000843,33.594612 
	C41.830173,35.550823 41.570854,37.419556 41.097382,39.988136 
	C36.675247,40.444668 32.466778,40.208431 28.261993,39.918781 
	C28.152700,39.911251 28.083599,39.320255 27.995754,39.001362 
	C28.024799,37.831299 28.053844,36.661232 28.070084,35.193539 
z"/>
<path fill="#FA9904" opacity="1.000000" stroke="none" 
	d="
M27.745964,38.834690 
	C28.083599,39.320255 28.152700,39.911251 28.261993,39.918781 
	C32.466778,40.208431 36.675247,40.444668 40.940498,40.353333 
	C42.404049,41.222492 46.368938,40.498177 43.696236,44.669052 
	C40.419582,44.987644 37.708309,44.986958 34.708290,45.008972 
	C33.945587,45.315933 33.471626,45.600189 32.646538,45.856022 
	C30.324015,45.869568 28.352613,45.911537 26.260637,45.641960 
	C26.043129,44.672855 25.946198,44.015289 25.849266,43.357727 
	C25.898327,41.871204 25.911291,40.381020 26.060953,38.904694 
	C26.073736,38.778599 26.996265,38.744732 27.745964,38.834690 
z"/>
<path fill="#F18804" opacity="1.000000" stroke="none" 
	d="
M34.997032,44.986271 
	C37.708309,44.986958 40.419582,44.987644 43.547997,44.982044 
	C43.984711,45.165737 44.004288,45.355717 44.076904,45.894588 
	C44.129944,46.243481 44.131897,46.381104 43.817719,46.389961 
	C42.927998,46.995937 42.352455,47.593052 41.700111,48.224976 
	C41.623306,48.259781 41.503490,48.141102 41.139626,48.118439 
	C40.171745,48.414738 39.567726,48.733704 38.702190,49.229122 
	C38.287632,49.549839 38.134594,49.694103 37.981552,49.838371 
	C37.827858,49.759556 37.674160,49.680737 37.253872,49.114510 
	C36.323868,47.413486 35.660450,46.199879 34.997032,44.986271 
z"/>
<path fill="#933E11" opacity="1.000000" stroke="none" 
	d="
M46.727547,46.020752 
	C47.110588,47.102528 47.115120,48.159210 47.077698,49.612686 
	C47.035740,50.009483 47.037361,50.097664 46.684517,50.124245 
	C45.862957,50.108940 45.394241,50.067055 44.861069,49.789597 
	C44.469688,49.193501 44.142765,48.832970 43.872749,48.122421 
	C43.997066,47.308640 44.064484,46.844872 44.131897,46.381104 
	C44.131897,46.381104 44.129944,46.243481 44.108170,46.179359 
	C44.840607,46.075378 45.594826,46.035519 46.727547,46.020752 
z"/>
<path fill="#C16912" opacity="1.000000" stroke="none" 
	d="
M47.875732,45.153088 
	C47.945507,45.382748 47.771019,45.697075 47.321632,46.036278 
	C47.241646,45.786694 47.436558,45.512222 47.875732,45.153088 
z"/>
<path fill="#FAD1AE" opacity="1.000000" stroke="none" 
	d="
M41.618614,33.127731 
	C41.072067,33.573395 40.481937,33.654869 39.242203,33.574104 
	C38.250504,33.426819 37.908409,33.441769 37.566311,33.456718 
	C36.932693,33.292747 36.299080,33.128780 35.342499,32.597710 
	C35.039101,31.635176 35.058662,31.039747 35.060699,30.061270 
	C34.974091,29.432095 34.905006,29.185972 34.835922,28.939852 
	C34.835922,28.939852 35.005730,28.946497 35.284477,28.916101 
	C35.852173,28.722721 36.012886,28.476158 36.045364,28.146017 
	C36.045364,28.146017 35.763302,27.810917 36.085258,28.060032 
	C36.697159,28.577383 36.987103,28.845615 37.330299,29.120975 
	C37.383545,29.128099 37.600910,29.088936 37.922623,29.138199 
	C39.191978,29.654102 40.139614,30.120741 41.087254,30.587379 
	C41.249847,31.312769 41.412437,32.038158 41.618614,33.127731 
z"/>
<path fill="#280F06" opacity="1.000000" stroke="none" 
	d="
M41.044888,30.358841 
	C40.139614,30.120741 39.191978,29.654102 38.078079,28.951054 
	C37.911819,28.714643 37.857502,28.232752 37.953884,27.898529 
	C38.075150,27.102442 38.100033,26.640579 38.348488,26.017937 
	C38.684658,25.712160 38.797260,25.567160 39.082726,25.447306 
	C39.514698,25.316389 39.555164,25.116037 39.555653,24.731508 
	C39.734314,24.591619 39.786083,24.140757 39.846359,24.206455 
	C39.906639,24.272154 39.919769,24.291773 40.283844,24.031851 
	C40.769928,23.499800 40.891930,23.227671 41.165771,22.897758 
	C41.317608,22.839975 41.641575,22.815113 41.641575,22.815113 
	C41.966064,23.013069 42.290554,23.211023 42.771244,23.890991 
	C42.915264,24.542727 42.903088,24.712454 42.602417,25.084690 
	C41.879391,26.591782 41.444855,27.896362 41.010323,29.200943 
	C40.979218,29.510490 40.976616,29.820276 41.044888,30.358841 
z"/>
<path fill="#40291D" opacity="1.000000" stroke="none" 
	d="
M41.320587,29.107521 
	C41.444855,27.896362 41.879391,26.591782 42.658546,25.393696 
	C43.329430,25.995195 43.655693,26.490200 43.981956,26.985207 
	C43.986691,27.154430 43.991421,27.323654 43.995857,27.746826 
	C43.207321,28.338551 42.419086,28.676325 41.320587,29.107521 
z"/>
<path fill="#EDAF84" opacity="1.000000" stroke="none" 
	d="
M51.014503,52.018135 
	C51.014500,52.018135 51.009525,52.500267 50.985947,52.740044 
	C50.962364,52.979824 50.498680,52.999969 50.267250,53.009861 
	C49.248974,52.681915 48.462120,52.344082 47.332985,51.687286 
	C47.006252,50.944771 47.021805,50.521217 47.037361,50.097664 
	C47.037361,50.097664 47.035740,50.009483 47.079895,50.011200 
	C48.153572,50.004623 49.183098,49.996330 50.605701,50.326813 
	C51.004021,51.116444 51.009262,51.567287 51.014503,52.018135 
z"/>
<path fill="#DD9C6E" opacity="1.000000" stroke="none" 
	d="
M51.256878,52.009804 
	C51.009262,51.567287 51.004021,51.116444 50.992165,50.326988 
	C50.987949,49.820866 50.990353,49.653355 51.216866,49.229836 
	C51.440979,48.973827 51.889053,48.924831 51.889053,48.924831 
	C51.918011,49.104443 51.946964,49.284054 51.991489,49.736622 
	C52.002106,50.448639 51.997154,50.887699 51.988087,51.655312 
	C51.983971,51.983868 51.499252,52.001469 51.256878,52.009804 
z"/>
<path fill="#EDAF84" opacity="1.000000" stroke="none" 
	d="
M51.886917,48.684624 
	C51.889053,48.924831 51.440979,48.973827 51.215576,48.978542 
	C51.070137,48.692272 51.219265,48.442635 51.612259,48.104191 
	C51.786961,47.974045 51.884781,48.444416 51.886917,48.684624 
z"/>
<path fill="#3D200F" opacity="1.000000" stroke="none" 
	d="
M41.950848,18.976515 
	C42.119320,18.975739 42.287792,18.974960 42.707878,18.954803 
	C42.753223,19.839758 42.546963,20.744093 41.897491,21.561157 
	C41.395420,21.283897 41.336559,21.093903 41.446930,20.605358 
	C41.533302,19.867439 41.450447,19.428072 41.514732,19.049313 
	C41.661880,19.109919 41.950848,18.976515 41.950848,18.976515 
z"/>
<path fill="#483126" opacity="1.000000" stroke="none" 
	d="
M44.001900,26.744770 
	C43.655693,26.490200 43.329430,25.995195 42.947037,25.191185 
	C42.903088,24.712454 42.915264,24.542727 42.947449,24.116859 
	C43.303493,24.373381 43.639530,24.886045 44.022667,25.711456 
	C44.069767,26.024199 44.021835,26.504335 44.001900,26.744770 
z"/>
<path fill="#CBA493" opacity="1.000000" stroke="none" 
	d="
M41.277702,20.903910 
	C41.336559,21.093903 41.395420,21.283897 41.590202,21.739515 
	C41.726120,22.005140 41.568573,22.398420 41.605072,22.606766 
	C41.641575,22.815113 41.317608,22.839975 41.244553,22.547874 
	C41.197357,21.778212 41.223217,21.300648 41.258675,20.842747 
	C41.268272,20.862410 41.277702,20.903910 41.277702,20.903910 
z"/>
<path fill="#FEEBDD" opacity="1.000000" stroke="none" 
	d="
M35.490669,11.504731 
	C35.617542,11.303868 35.864262,11.350642 36.269470,11.286345 
	C37.112953,11.140836 37.551235,11.059623 37.989513,10.978410 
	C37.989513,10.978411 38.401402,11.229732 38.642056,11.243635 
	C38.882710,11.257539 38.909058,11.575154 39.029484,11.982071 
	C39.412628,12.640074 39.675346,12.891161 39.938065,13.142248 
	C39.938065,13.142248 40.053398,13.582256 40.187706,13.765448 
	C40.246872,14.105255 40.171730,14.261869 39.731884,14.679911 
	C38.844269,15.250798 38.321354,15.560259 37.455254,15.900925 
	C36.659847,16.019793 36.207626,16.107456 35.470657,16.126902 
	C34.806606,15.963577 34.427303,15.868471 33.944893,15.627954 
	C33.537148,15.525743 33.232510,15.568942 32.814316,15.695031 
	C32.700756,15.777922 32.483269,15.956154 32.471123,15.939835 
	C32.458977,15.923515 32.433693,15.890629 32.433693,15.890629 
	C32.333851,15.747582 32.234005,15.604537 32.129593,15.001683 
	C32.092793,14.376585 32.060566,14.211294 32.028339,14.046003 
	C32.028339,14.046003 32.255333,14.086387 32.549507,13.972864 
	C32.964439,13.483918 33.085194,13.108494 33.205948,12.733069 
	C33.205948,12.733069 33.132080,12.425568 33.105968,12.269497 
	C33.079857,12.113425 33.520382,12.155142 33.859459,12.350109 
	C34.476166,12.378433 34.753792,12.211789 35.031422,12.045145 
	C35.031422,12.045146 35.363800,11.705594 35.490669,11.504731 
z"/>
<path fill="#B6856E" opacity="1.000000" stroke="none" 
	d="
M37.798439,15.869720 
	C38.321354,15.560259 38.844269,15.250798 39.676003,14.934411 
	C40.190739,15.891775 40.396656,16.856064 40.887814,18.277615 
	C41.173050,18.734877 41.200932,19.125671 40.864498,18.989513 
	C39.618191,17.858812 38.708313,16.864265 37.798439,15.869720 
z"/>
<path fill="#CBA493" opacity="1.000000" stroke="none" 
	d="
M41.200932,19.125671 
	C41.200932,19.125671 41.173050,18.734877 41.156761,18.541365 
	C41.370243,18.418144 41.550549,18.554106 41.816116,18.866127 
	C41.950848,18.976515 41.661880,19.109919 41.490158,19.104290 
	C41.318436,19.098663 41.200932,19.125671 41.200932,19.125671 
z"/>
<path fill="#B6856E" opacity="1.000000" stroke="none" 
	d="
M39.981979,12.837192 
	C39.675346,12.891161 39.412628,12.640074 39.121075,12.112473 
	C39.403458,12.068017 39.714672,12.300076 39.981979,12.837192 
z"/>
<path fill="#423027" opacity="1.000000" stroke="none" 
	d="
M37.819061,10.739998 
	C37.551235,11.059623 37.112953,11.140836 36.341743,11.183676 
	C36.006355,10.954947 36.003906,10.764590 36.001644,10.288715 
	C36.550755,10.169326 37.099682,10.335456 37.819061,10.739998 
z"/>
<path fill="#FACDAB" opacity="1.000000" stroke="none" 
	d="
M25.501890,43.288292 
	C25.946198,44.015289 26.043129,44.672855 26.137150,45.897892 
	C26.070662,46.642914 26.007082,46.820457 25.721382,46.988983 
	C25.499262,46.979961 25.054661,46.977863 24.793756,46.977539 
	C24.358915,46.976856 24.184980,46.976501 23.819557,46.736046 
	C22.852413,46.297649 22.076757,46.099361 21.301104,45.901077 
	C21.301104,45.901073 21.318718,45.410709 21.490536,45.037254 
	C21.841574,44.441933 21.940561,44.188633 21.959316,43.903908 
	C23.024382,43.675556 24.089449,43.447208 25.501890,43.288292 
z"/>
<path fill="#F2BFA6" opacity="1.000000" stroke="none" 
	d="
M21.752253,43.963905 
	C21.940561,44.188633 21.841574,44.441933 21.506870,44.792461 
	C21.351389,44.921120 21.212009,44.582443 21.188202,44.404282 
	C21.164392,44.226124 21.545189,44.023899 21.752253,43.963905 
z"/>
<path fill="#F8CFB4" opacity="1.000000" stroke="none" 
	d="
M38.909863,25.422161 
	C38.797260,25.567160 38.684658,25.712160 37.997360,25.935812 
	C36.943710,26.015896 36.464752,26.017324 35.763969,25.906839 
	C35.542145,25.794924 35.049187,25.857574 35.049187,25.857574 
	C34.763325,25.406296 34.477463,24.955015 34.360203,24.146723 
	C35.712467,23.794724 36.896133,23.799738 38.302574,23.842735 
	C38.525349,23.880720 38.977276,23.888237 39.122952,23.975468 
	C39.268627,24.062698 39.590557,24.170782 39.644920,24.213360 
	C39.699280,24.255938 39.830189,24.211946 39.813538,24.199123 
	C39.796886,24.186298 39.786083,24.140757 39.786083,24.140757 
	C39.786083,24.140757 39.734314,24.591619 39.413261,24.753103 
	C38.903351,25.037840 38.842571,25.207031 38.909863,25.422161 
z"/>
<path fill="#CE9981" opacity="1.000000" stroke="none" 
	d="
M38.079796,23.804752 
	C36.896133,23.799738 35.712467,23.794724 34.249756,23.901699 
	C33.970711,24.013685 33.516716,23.989878 33.289524,23.981579 
	C32.925911,23.576199 32.789490,23.179121 33.009411,22.374125 
	C33.592911,21.899870 33.820068,21.833536 34.331738,21.769516 
	C35.054974,21.479246 35.493698,21.186661 36.191017,20.913815 
	C36.621830,20.941444 36.794048,20.949335 37.082615,21.244350 
	C37.492573,22.289232 37.786186,23.046991 38.079796,23.804752 
z"/>
<path fill="#804A28" opacity="1.000000" stroke="none" 
	d="
M35.985798,26.018755 
	C36.464752,26.017324 36.943710,26.015896 37.773788,26.096590 
	C38.100033,26.640579 38.075150,27.102442 37.769684,28.092857 
	C37.418419,28.785557 37.347733,28.949703 37.277050,29.113850 
	C36.987103,28.845615 36.697159,28.577383 36.033020,27.847351 
	C35.658833,27.385551 35.634167,27.338120 35.756695,27.003670 
	C35.914749,26.452396 35.950272,26.235575 35.985798,26.018755 
z"/>
<path fill="#F1BF9A" opacity="1.000000" stroke="none" 
	d="
M35.078224,30.444321 
	C35.058662,31.039747 35.039101,31.635176 35.021564,32.527275 
	C34.716244,32.699162 34.408897,32.574379 33.966782,32.223778 
	C33.942055,31.635637 34.052097,31.273310 34.419792,30.635193 
	C34.677441,30.359402 35.078228,30.444321 35.078224,30.444321 
z"/>
<path fill="#6E432A" opacity="1.000000" stroke="none" 
	d="
M35.763969,25.906839 
	C35.950272,26.235575 35.914749,26.452396 35.772110,26.981451 
	C35.465073,26.998028 35.265141,26.702374 35.057198,26.132147 
	C35.049187,25.857574 35.542145,25.794924 35.763969,25.906839 
z"/>
<path fill="#E2AE89" opacity="1.000000" stroke="none" 
	d="
M35.743996,28.003971 
	C36.012886,28.476158 35.852173,28.722721 35.350639,28.969419 
	C35.239578,28.656065 35.341103,28.258995 35.743996,28.003971 
z"/>
<path fill="#6E432A" opacity="1.000000" stroke="none" 
	d="
M35.060699,30.061270 
	C35.078228,30.444321 34.677441,30.359402 34.472656,30.356457 
	C34.316895,30.000868 34.365917,29.648222 34.625431,29.117714 
	C34.905006,29.185972 34.974091,29.432095 35.060699,30.061270 
z"/>
<path fill="#FAD8C3" opacity="1.000000" stroke="none" 
	d="
M35.932423,20.894073 
	C35.493698,21.186661 35.054974,21.479246 34.104706,21.583965 
	C33.211487,21.345623 32.829819,21.295147 32.448151,21.244673 
	C32.448151,21.244673 32.218937,21.116739 32.157333,20.807770 
	C32.038094,20.339293 31.980453,20.179785 31.997944,19.800060 
	C32.073074,19.579844 32.113525,19.116247 32.445457,19.048822 
	C33.451572,18.937222 34.125755,18.893045 35.059608,19.021763 
	C35.523663,19.761131 35.728043,20.327604 35.932423,20.894073 
z"/>
<path fill="#542F1B" opacity="1.000000" stroke="none" 
	d="
M32.113525,19.116247 
	C32.113525,19.116247 32.073074,19.579844 31.761984,19.798653 
	C31.450893,20.017462 30.979233,20.032066 30.979233,20.032066 
	C30.977533,19.864418 30.975832,19.696770 30.971842,19.278473 
	C30.979712,18.577095 30.989872,18.126364 31.000427,17.338217 
	C31.176201,16.993979 31.351582,16.987152 31.801582,16.841927 
	C32.076206,16.703529 32.327801,16.683981 32.215187,17.082432 
	C32.106228,18.026005 32.109879,18.571127 32.113525,19.116247 
z"/>
<path fill="#40291D" opacity="1.000000" stroke="none" 
	d="
M31.095005,20.241905 
	C30.979233,20.032066 31.450893,20.017462 31.686855,20.018867 
	C31.980453,20.179785 32.038094,20.339293 32.040947,20.747108 
	C31.670647,20.895544 31.412186,20.714321 31.095005,20.241905 
z"/>
<path fill="#EDBCA4" opacity="1.000000" stroke="none" 
	d="
M32.421616,21.492788 
	C32.829819,21.295147 33.211487,21.345623 33.820190,21.581650 
	C33.820068,21.833536 33.592911,21.899870 33.022156,22.058922 
	C32.678555,22.151638 32.395077,21.740904 32.421616,21.492788 
z"/>
<path fill="#C05D09" opacity="1.000000" stroke="none" 
	d="
M29.836872,34.330795 
	C29.819056,34.498676 29.573332,34.707279 29.077816,34.886528 
	C29.046131,34.627403 29.306446,34.465519 29.836872,34.330795 
z"/>
<path fill="#4A3325" opacity="1.000000" stroke="none" 
	d="
M31.771576,14.025801 
	C32.060566,14.211294 32.092793,14.376585 32.012215,14.767818 
	C31.595755,14.879308 31.358656,14.684035 31.094257,14.193315 
	C31.171869,13.987656 31.343340,13.996626 31.771576,14.025801 
z"/>
<path fill="#FACDAB" opacity="1.000000" stroke="none" 
	d="
M32.331581,16.154169 
	C32.433693,15.890629 32.458977,15.923515 32.491879,16.065800 
	C32.442959,16.360022 32.377300,16.518654 32.327801,16.683981 
	C32.327801,16.683981 32.076206,16.703529 32.064537,16.829102 
	C32.111736,16.775688 32.170605,16.596699 32.331581,16.154169 
z"/>
<path fill="#F2BFA6" opacity="1.000000" stroke="none" 
	d="
M21.228163,46.124176 
	C22.076757,46.099361 22.852413,46.297649 23.909403,46.905037 
	C24.478712,47.202042 24.766685,47.089954 25.054661,46.977863 
	C25.054661,46.977863 25.499262,46.979961 25.908434,47.159649 
	C26.580091,47.546700 26.842577,47.754059 27.101002,48.189224 
	C27.096943,48.417027 27.057980,48.871040 27.057980,48.871040 
	C26.578859,49.225327 26.099741,49.579613 25.310387,49.966419 
	C24.276045,49.983871 23.551935,49.968800 22.468506,49.927380 
	C21.820868,49.085903 21.532549,48.270779 21.161949,47.133125 
	C21.079670,46.810596 21.155222,46.347275 21.228163,46.124176 
z"/>
<path fill="#EEB790" opacity="1.000000" stroke="none" 
	d="
M46.684513,50.124245 
	C47.021805,50.521217 47.006252,50.944771 46.992130,51.686676 
	C46.005417,52.742424 45.017269,53.479816 43.794624,54.747356 
	C43.333199,55.772690 43.106270,56.267872 42.879337,56.763058 
	C42.362572,56.922829 41.845806,57.082600 41.137474,57.435001 
	C40.549480,57.660614 40.153061,57.693600 39.279587,57.535774 
	C38.463867,57.179508 38.155243,57.223766 37.876667,57.477745 
	C37.876667,57.477745 37.770683,57.295418 37.871998,56.863922 
	C37.977322,55.953461 37.981335,55.474499 37.985348,54.995533 
	C38.635265,54.210770 39.285179,53.426006 40.302223,52.285912 
	C42.088078,51.295441 43.506802,50.660305 44.925529,50.025169 
	C45.394241,50.067055 45.862957,50.108940 46.684513,50.124245 
z"/>
<path fill="#C65F07" opacity="1.000000" stroke="none" 
	d="
M27.105062,47.961422 
	C26.842577,47.754059 26.580091,47.546700 26.130554,47.168671 
	C26.007082,46.820457 26.070662,46.642914 26.257729,46.209435 
	C28.352613,45.911537 30.324015,45.869568 32.759346,46.161827 
	C33.802479,47.637367 34.381676,48.778679 34.960873,49.919994 
	C34.229416,50.032005 33.497955,50.144016 32.388336,49.846493 
	C31.506414,45.184399 28.589186,48.954948 27.105062,47.961422 
z"/>
<path fill="#FBCAA8" opacity="1.000000" stroke="none" 
	d="
M44.861069,49.789597 
	C43.506802,50.660305 42.088078,51.295441 40.334141,51.965584 
	C39.439098,51.818874 38.879265,51.637165 38.150272,50.934860 
	C37.972916,50.230995 37.964714,50.047714 37.956512,49.864433 
	C37.956512,49.864433 37.972557,49.843700 37.977055,49.841034 
	C38.134594,49.694103 38.287632,49.549839 39.053017,49.244171 
	C40.278072,48.768883 40.890781,48.454994 41.503490,48.141102 
	C41.503490,48.141102 41.623306,48.259781 42.038750,48.292988 
	C42.908081,48.374943 43.361961,48.423691 43.815845,48.472435 
	C44.142765,48.832970 44.469688,49.193501 44.861069,49.789597 
z"/>
<path fill="#E17604" opacity="1.000000" stroke="none" 
	d="
M35.240005,49.932632 
	C34.381676,48.778679 33.802479,47.637367 33.110474,46.190247 
	C33.471626,45.600189 33.945587,45.315933 34.708290,45.008972 
	C35.660450,46.199879 36.323868,47.413486 37.026711,48.989899 
	C36.550468,49.550228 36.034801,49.747749 35.240005,49.932632 
z"/>
<path fill="#B34E07" opacity="1.000000" stroke="none" 
	d="
M27.101002,48.189224 
	C28.589186,48.954948 31.506414,45.184399 32.019333,49.803879 
	C30.575857,49.894070 29.123222,49.617336 27.364285,49.105824 
	C27.057980,48.871040 27.096943,48.417027 27.101002,48.189224 
z"/>
<path fill="#EEC0A2" opacity="1.000000" stroke="none" 
	d="
M37.777260,54.986759 
	C37.981335,55.474499 37.977322,55.953461 37.948738,56.791607 
	C37.511486,57.233635 37.098808,57.316483 36.368263,57.414677 
	C35.901302,57.292572 35.752209,57.155121 35.364304,56.829502 
	C35.640968,56.156498 36.156437,55.671661 36.913467,55.060013 
	C37.155033,54.933197 37.569168,54.977985 37.777260,54.986759 
z"/>
<path fill="#EAAB80" opacity="1.000000" stroke="none" 
	d="
M22.293373,51.940292 
	C22.125410,51.702316 22.293810,51.434662 22.835468,51.184990 
	C22.932367,51.396656 22.739368,51.632538 22.293373,51.940292 
z"/>
<path fill="#FDBE89" opacity="1.000000" stroke="none" 
	d="
M37.806702,49.983772 
	C37.964714,50.047714 37.972916,50.230995 37.976974,50.688942 
	C37.810074,50.787979 37.627007,50.625568 37.498299,50.427780 
	C37.464554,50.375916 37.599445,50.214317 37.806702,49.983772 
z"/>
<path fill="#8E7267" opacity="1.000000" stroke="none" 
	d="
M38.066566,57.610847 
	C38.155243,57.223766 38.463867,57.179508 38.981895,57.514553 
	C39.161255,57.684139 38.715492,57.814556 38.715492,57.814556 
	C38.715492,57.814556 38.256470,57.743950 38.066566,57.610847 
z"/>
<path fill="#D9A079" opacity="1.000000" stroke="none" 
	d="
M43.096474,56.896164 
	C43.106270,56.267872 43.333199,55.772690 43.787418,55.112648 
	C44.342846,55.296318 44.670982,55.644840 44.975929,56.519730 
	C44.938324,57.233807 44.923908,57.421509 44.909496,57.609207 
	C44.909496,57.609207 44.439896,57.762840 44.193577,57.778156 
	C43.736042,57.538738 43.524826,57.284004 43.096474,56.896164 
z"/>
<path fill="#AA8874" opacity="1.000000" stroke="none" 
	d="
M45.161968,57.679977 
	C44.923908,57.421509 44.938324,57.233807 44.999535,56.766487 
	C45.235371,56.562836 45.424412,56.638794 45.849625,56.908928 
	C45.862007,57.318985 45.638226,57.534866 45.161968,57.679977 
z"/>
<path fill="#FACDAB" opacity="1.000000" stroke="none" 
	d="
M32.992882,12.787225 
	C33.085194,13.108494 32.964439,13.483918 32.662773,13.951378 
	C32.581177,13.642735 32.680500,13.242058 32.992882,12.787225 
z"/>
<path fill="#F8CFB4" opacity="1.000000" stroke="none" 
	d="
M34.742977,11.995232 
	C34.753792,12.211789 34.476166,12.378433 34.075829,12.396323 
	C34.120258,12.146818 34.287395,12.046068 34.742977,11.995232 
z"/>
<path fill="#F8C783" opacity="1.000000" stroke="none" 
	d="
M37.776134,33.610893 
	C37.908409,33.441769 38.250504,33.426819 38.797417,33.577118 
	C38.663475,33.749935 38.324718,33.757504 37.776134,33.610893 
z"/>
<path fill="#A94509" opacity="1.000000" stroke="none" 
	d="
M43.872749,48.122421 
	C43.361961,48.423691 42.908081,48.374943 42.115555,48.258183 
	C42.352455,47.593052 42.927998,46.995937 43.817719,46.389961 
	C44.064484,46.844872 43.997066,47.308640 43.872749,48.122421 
z"/>
<path fill="#E07F1A" opacity="1.000000" stroke="none" 
	d="
M41.139626,48.118439 
	C40.890781,48.454994 40.278072,48.768883 39.314537,49.067719 
	C39.567726,48.733704 40.171745,48.414738 41.139626,48.118439 
z"/>
<path fill="#E2AE89" opacity="1.000000" stroke="none" 
	d="
M37.330299,29.120975 
	C37.347733,28.949703 37.418419,28.785557 37.673302,28.427080 
	C37.857502,28.232752 37.911819,28.714643 37.756363,28.901791 
	C37.600910,29.088936 37.383545,29.128099 37.330299,29.120975 
z"/>
<path fill="#B88066" opacity="1.000000" stroke="none" 
	d="
M38.302574,23.842735 
	C37.786186,23.046991 37.492573,22.289232 37.360981,21.129818 
	C38.288731,20.647734 39.054455,20.567305 39.985348,20.630547 
	C40.150513,20.774214 40.577988,20.876196 40.577988,20.876196 
	C40.577988,20.876196 40.986805,20.714352 41.056904,20.730610 
	C41.127003,20.746870 41.249077,20.823086 41.249077,20.823086 
	C41.223217,21.300648 41.197357,21.778212 41.092716,22.605658 
	C40.891930,23.227671 40.769928,23.499800 40.271347,24.001265 
	C39.894772,24.230600 39.830189,24.211946 39.830189,24.211946 
	C39.830189,24.211946 39.699280,24.255938 39.713902,24.027208 
	C39.478107,23.828398 39.227692,23.858318 38.977276,23.888237 
	C38.977276,23.888237 38.525349,23.880720 38.302574,23.842735 
z"/>
<path fill="#CE9981" opacity="1.000000" stroke="none" 
	d="
M39.082726,25.447306 
	C38.842571,25.207031 38.903351,25.037840 39.234600,24.892992 
	C39.555164,25.116037 39.514698,25.316389 39.082726,25.447306 
z"/>
<path fill="#FAD8C3" opacity="1.000000" stroke="none" 
	d="
M39.813538,24.199123 
	C39.830189,24.211946 39.894772,24.230600 39.907272,24.261187 
	C39.919769,24.291773 39.906639,24.272154 39.846359,24.206455 
	C39.786083,24.140757 39.796886,24.186298 39.813538,24.199123 
z"/>
<path fill="#ECC1AB" opacity="1.000000" stroke="none" 
	d="
M39.820183,20.486877 
	C39.054455,20.567305 38.288731,20.647734 37.244637,20.842693 
	C36.794048,20.949335 36.621830,20.941444 36.191017,20.913815 
	C35.728043,20.327604 35.523663,19.761131 35.192638,18.765234 
	C35.295799,17.622248 35.525604,16.908684 35.755405,16.195120 
	C36.207626,16.107456 36.659847,16.019793 37.455254,15.900925 
	C38.708313,16.864265 39.618191,17.858812 40.864498,18.989513 
	C41.200932,19.125671 41.318436,19.098663 41.343010,19.043686 
	C41.450447,19.428072 41.533302,19.867439 41.446930,20.605358 
	C41.277702,20.903910 41.268272,20.862410 41.258675,20.842747 
	C41.249077,20.823086 41.127003,20.746870 40.884998,20.608929 
	C40.366081,20.334074 40.091812,20.339369 39.820183,20.486877 
z"/>
<path fill="#A1755C" opacity="1.000000" stroke="none" 
	d="
M35.470657,16.126902 
	C35.525604,16.908684 35.295799,17.622248 34.932964,18.592339 
	C34.125755,18.893045 33.451572,18.937222 32.445457,19.048822 
	C32.109879,18.571127 32.106228,18.026005 32.215187,17.082432 
	C32.377300,16.518654 32.442959,16.360022 32.504025,16.082119 
	C32.483269,15.956154 32.700756,15.777922 33.084068,15.807871 
	C33.660919,15.816335 33.854462,15.794850 34.048004,15.773365 
	C34.427303,15.868471 34.806606,15.963577 35.470657,16.126902 
z"/>
<path fill="#FACDAB" opacity="1.000000" stroke="none" 
	d="
M33.944893,15.627954 
	C33.854462,15.794850 33.660919,15.816335 33.197624,15.724979 
	C33.232510,15.568942 33.537148,15.525743 33.944893,15.627954 
z"/>
<path fill="#EEB790" opacity="1.000000" stroke="none" 
	d="
M24.793756,46.977539 
	C24.766685,47.089954 24.478712,47.202042 24.100891,47.145142 
	C24.184980,46.976501 24.358915,46.976856 24.793756,46.977539 
z"/>
<path fill="#CE9981" opacity="1.000000" stroke="none" 
	d="
M39.122952,23.975468 
	C39.227692,23.858318 39.478107,23.828398 39.659538,23.984631 
	C39.590557,24.170782 39.268627,24.062698 39.122952,23.975468 
z"/>
<path fill="#E2AE89" opacity="1.000000" stroke="none" 
	d="
M39.985348,20.630547 
	C40.091812,20.339369 40.366081,20.334074 40.814899,20.592670 
	C40.986805,20.714352 40.577988,20.876196 40.577988,20.876196 
	C40.577988,20.876196 40.150513,20.774214 39.985348,20.630547 
z"/>
</svg>